<svg xmlns="http://www.w3.org/2000/svg" xmlns:xlink="http://www.w3.org/1999/xlink" width="500" zoomAndPan="magnify" viewBox="0 0 375 374.999991" height="500" preserveAspectRatio="xMidYMid meet" version="1.0"><defs><g/></defs><g fill="#000000" fill-opacity="1"><g transform="translate(85.410899, 188.536027)"><g><path d="M 1.828125 -41.359375 L 36.09375 -41.359375 L 36.09375 -27.40625 L 27.53125 -27.40625 L 27.53125 -25.640625 L 36.09375 -25.640625 L 36.09375 -12.34375 L 26.828125 -12.34375 L 26.828125 0 L 1.828125 0 Z M 1.828125 -41.359375 "/></g></g></g><g fill="#000000" fill-opacity="1"><g transform="translate(123.2184, 188.536027)"><g><path d="M 1.53125 -19.84375 L 1.53125 -41.46875 L 42.890625 -41.46875 L 42.890625 -19.84375 C 42.890625 -17.007812 42.359375 -14.34375 41.296875 -11.84375 C 40.234375 -9.34375 38.742188 -7.132812 36.828125 -5.21875 C 34.921875 -3.3125 32.71875 -1.828125 30.21875 -0.765625 C 27.71875 0.296875 25.050781 0.828125 22.21875 0.828125 C 19.375 0.828125 16.703125 0.296875 14.203125 -0.765625 C 11.703125 -1.828125 9.492188 -3.3125 7.578125 -5.21875 C 5.671875 -7.132812 4.1875 -9.34375 3.125 -11.84375 C 2.0625 -14.34375 1.53125 -17.007812 1.53125 -19.84375 Z M 1.53125 -19.84375 "/></g></g></g><g fill="#000000" fill-opacity="1"><g transform="translate(167.642209, 188.536027)"><g><path d="M 1.765625 -42.359375 L 22.5625 -26.109375 L 22.5625 -41.359375 L 43.125 -41.359375 L 43.125 0 L 1.765625 0 Z M 1.765625 -42.359375 "/></g></g></g><g fill="#000000" fill-opacity="1"><g transform="translate(212.420466, 188.536027)"><g><path d="M 7.03125 -36.09375 C 9.15625 -38.21875 11.546875 -39.8125 14.203125 -40.875 C 16.867188 -41.945312 19.609375 -42.484375 22.421875 -42.484375 C 25.234375 -42.484375 27.96875 -41.945312 30.625 -40.875 C 33.289062 -39.8125 35.6875 -38.21875 37.8125 -36.09375 L 22.390625 -20.734375 L 37.8125 -5.3125 C 35.6875 -3.1875 33.289062 -1.59375 30.625 -0.53125 C 27.96875 0.53125 25.234375 1.0625 22.421875 1.0625 C 19.609375 1.0625 16.867188 0.53125 14.203125 -0.53125 C 11.546875 -1.59375 9.15625 -3.1875 7.03125 -5.3125 C 4.90625 -7.4375 3.3125 -9.828125 2.25 -12.484375 C 1.1875 -15.148438 0.65625 -17.890625 0.65625 -20.703125 C 0.65625 -23.523438 1.1875 -26.265625 2.25 -28.921875 C 3.3125 -31.578125 4.90625 -33.96875 7.03125 -36.09375 Z M 7.03125 -36.09375 "/></g></g></g><g fill="#000000" fill-opacity="1"><g transform="translate(250.464263, 188.536027)"><g><path d="M 31.78125 -20.671875 L 31.78125 0 L 11.109375 0 L 11.109375 -20.671875 L -0.46875 -41.359375 L 43.359375 -41.359375 Z M 31.78125 -20.671875 "/></g></g></g><g fill="#000000" fill-opacity="1"><g transform="translate(84.860406, 231.52874)"><g><path d="M 1.640625 -37.1875 L 32.453125 -37.1875 L 32.453125 -24.65625 L 24.75 -24.65625 L 24.75 -23.0625 L 32.453125 -23.0625 L 32.453125 -11.109375 L 24.125 -11.109375 L 24.125 0 L 1.640625 0 Z M 1.640625 -37.1875 "/></g></g></g><g fill="#000000" fill-opacity="1"><g transform="translate(118.858114, 231.52874)"><g><path d="M -1.484375 0 L 22 -39.796875 L 45.46875 0 Z M -1.484375 0 "/></g></g></g><g fill="#000000" fill-opacity="1"><g transform="translate(162.683289, 231.52874)"><g><path d="M 1.546875 -37.1875 L 20.875 -37.1875 C 22.894531 -37.1875 24.726562 -36.8125 26.375 -36.0625 C 28.019531 -35.320312 29.390625 -34.320312 30.484375 -33.0625 C 31.585938 -31.8125 32.367188 -30.429688 32.828125 -28.921875 C 33.285156 -27.421875 33.351562 -25.878906 33.03125 -24.296875 C 32.71875 -22.722656 31.941406 -21.265625 30.703125 -19.921875 C 32.398438 -18.679688 33.550781 -17.203125 34.15625 -15.484375 C 34.757812 -13.765625 34.875 -12 34.5 -10.1875 C 34.132812 -8.382812 33.332031 -6.710938 32.09375 -5.171875 C 30.851562 -3.640625 29.226562 -2.394531 27.21875 -1.4375 C 25.21875 -0.476562 22.910156 0 20.296875 0 L 1.546875 0 Z M 1.546875 -37.1875 "/></g></g></g><g fill="#000000" fill-opacity="1"><g transform="translate(198.274636, 231.52874)"><g><path d="M 19.4375 -37.1875 C 21.53125 -37.1875 23.488281 -36.796875 25.3125 -36.015625 C 27.132812 -35.234375 28.742188 -34.148438 30.140625 -32.765625 C 31.546875 -31.390625 32.632812 -29.78125 33.40625 -27.9375 C 34.1875 -26.101562 34.578125 -24.140625 34.578125 -22.046875 C 34.578125 -19.640625 34.054688 -17.40625 33.015625 -15.34375 C 31.972656 -13.289062 30.566406 -11.578125 28.796875 -10.203125 L 34.265625 0.046875 L 1.59375 0.046875 C 1.59375 -4.515625 1.59375 -8.25 1.59375 -11.15625 C 1.59375 -14.0625 1.59375 -16.335938 1.59375 -17.984375 C 1.59375 -19.628906 1.59375 -20.820312 1.59375 -21.5625 C 1.59375 -22.3125 1.59375 -22.789062 1.59375 -23 C 1.59375 -23.21875 1.59375 -23.351562 1.59375 -23.40625 C 1.59375 -23.457031 1.59375 -23.625 1.59375 -23.90625 C 1.59375 -24.1875 1.59375 -24.757812 1.59375 -25.625 C 1.59375 -26.5 1.59375 -27.847656 1.59375 -29.671875 C 1.59375 -31.492188 1.59375 -34 1.59375 -37.1875 Z M 19.4375 -37.1875 "/></g></g></g><g fill="#000000" fill-opacity="1"><g transform="translate(233.441016, 231.52874)"><g><path d="M 1.546875 -37.1875 L 20.875 -37.1875 L 20.875 0 L 1.546875 0 Z M 1.546875 -37.1875 "/></g></g></g><g fill="#000000" fill-opacity="1"><g transform="translate(255.911371, 231.52874)"><g><path d="M 6.328125 -32.453125 C 8.234375 -34.367188 10.378906 -35.804688 12.765625 -36.765625 C 15.160156 -37.722656 17.625 -38.203125 20.15625 -38.203125 C 22.6875 -38.203125 25.144531 -37.722656 27.53125 -36.765625 C 29.925781 -35.804688 32.082031 -34.367188 34 -32.453125 L 20.140625 -18.640625 L 34 -4.78125 C 32.082031 -2.863281 29.925781 -1.425781 27.53125 -0.46875 C 25.144531 0.476562 22.6875 0.953125 20.15625 0.953125 C 17.625 0.953125 15.160156 0.476562 12.765625 -0.46875 C 10.378906 -1.425781 8.234375 -2.863281 6.328125 -4.78125 C 4.410156 -6.695312 2.972656 -8.847656 2.015625 -11.234375 C 1.054688 -13.628906 0.578125 -16.09375 0.578125 -18.625 C 0.578125 -21.15625 1.054688 -23.613281 2.015625 -26 C 2.972656 -28.394531 4.410156 -30.546875 6.328125 -32.453125 Z M 6.328125 -32.453125 "/></g></g></g><g fill="#000000" fill-opacity="1"><g transform="translate(176.830806, 280.33889)"><g/></g></g></svg>